<svg id="Layer_1" data-name="Layer 1" xmlns="http://www.w3.org/2000/svg" viewBox="0 0 474 593"><defs><style>.cls-1{fill:#ef960b;}</style></defs><path class="cls-1" d="M475,258c-1,6.1-2,12.19-3,18.29A225.35,225.35,0,0,1,438,366.2c-7.15,10.95-15.63,21-23.53,31.48-1.28,1.7-2.63,3.35-3.95,5l-1.58-1.09a21.45,21.45,0,0,1,1.64-3.37,212.35,212.35,0,0,0,38.26-94c6.19-42.15,1.11-83.06-16.51-122.13Q400,110.54,329.65,75.82a203.17,203.17,0,0,0-74.28-20.11C206.11,51.8,160.77,63.36,120,91c-48.36,32.81-79,78.4-90.6,135.54-12.53,61.8-.49,119.26,35.78,171.27.79,1.13,1.39,2.39,2.08,3.58l-1.21.95c-3.55-3.95-7.26-7.78-10.62-11.89A239.48,239.48,0,0,1,3.25,272.89C2.49,267.93,1.75,263,1,258V219a6.37,6.37,0,0,0,1-2,218.13,218.13,0,0,1,10.47-51.6c15.5-47.11,42.86-86,82.3-116.07C128.14,23.83,165.76,8.18,207.59,3c3.83-.48,7.61-1.3,11.41-2h38c3.81.65,7.6,1.46,11.43,1.94A225.62,225.62,0,0,1,372.11,42.65Q454.66,100.72,472,200.52c1.12,6.47,2,13,3,19.48Z"/><path class="cls-1" d="M228,570c-4.41-2.4-9.13-4.37-13.17-7.29a30.54,30.54,0,0,1-12-17.33c4.62,0,8.8-.28,12.9.18,1.16.13,2.77,2.32,3,3.76.76,4.82,3.3,6.88,8.1,6.78,6.49-.13,13,0,19.49-.06,4.53,0,7.59-1.74,8-6.82.11-1.26,1.29-3.4,2.1-3.47,4.44-.34,8.92-.16,14.37-.16C265.45,557.9,257.91,565.74,246,569a10.2,10.2,0,0,0-2,1Z"/><path class="cls-1" d="M303.1,440.55H269c.94-7.68,1.63-15.06,2.8-22.36,2.2-13.72.79-15.57-12.87-15.57q-24.73,0-49.48.08c-7.48,0-9,1.43-8.57,8.75s1.62,14.51,2.46,21.77c.27,2.28.51,4.56.84,7.6-8.27,0-16,0-23.81,0-3.32,0-7.4.89-9.69-.7-1.76-1.22-1.35-5.69-1.74-8.73-1.85-14.44-9.24-26.11-18.6-36.66-14.1-15.87-29.14-31-40.17-49.34C98.33,325.68,90,304.85,87.94,281.71c-4.46-49.4,12.09-90.85,47.84-124.46,23.67-22.25,52.31-34.7,84.74-38.19,36.69-4,70.42,4.51,100.57,25.38,34.92,24.16,56,57.56,63,99.71,6.11,36.62-2.23,70-21.22,101.31-10.33,17-23.93,31.35-37.18,46-8.49,9.39-16.49,19.19-19.73,31.77C304.57,428.64,304.1,434.29,303.1,440.55Zm-52.16-296.9a27.46,27.46,0,0,0-4,2.48c-5.94,5.53-12.57,10.54-17.55,16.85-18.84,23.86-24.25,55-2.94,82.1,6.86,8.75,13.73,17.6,19.44,27.1,8.15,13.53,12.16,28.2,5.88,43.79-2.06,5.12-5.24,9.79-7.92,14.66a91.37,91.37,0,0,0,18.5-8c12.52-7.2,22.72-16.71,28.52-30.32,7.49-17.56,4.22-34.6-4.27-50.4-6.87-12.8-15.67-24.6-24.1-36.5-9.22-13-16.89-26.48-15.2-43.16C247.91,156.24,249.6,150.33,250.94,143.65ZM237.09,349c-8.66,0-17.32-.08-26,0-12,.14-24,.2-35.92.7-6.95.3-8.46,2.83-6,9.5,2.54,6.85,5.71,13.48,8.32,20.31C180,386,184.74,389,191.31,389q45.23.14,90.44,0c6.56,0,11.33-3,13.81-9.45s5.49-12.83,8.13-19.29c3-7.32,1.62-9.62-6.2-10.6a74.17,74.17,0,0,0-8.93-.63C271.4,349,254.25,349,237.09,349ZM192.8,199.22c-1.07,1.19-2.24,2.31-3.2,3.59-9.06,12-12.15,25.66-11,40.45,1.17,14.58,8.06,26.34,17.54,37.14,9.78,11.13,19,22.86,22.37,37.78,1.07,4.73,1,9.7,1.55,15.13,7.21-6.37,13.16-13.08,15.8-22.19,3.39-11.71-.63-22.08-6.61-31.67-6.77-10.84-14.41-21.14-21.51-31.78C198.09,233.17,190.55,218,192.8,199.22Z"/><path class="cls-1" d="M217,536H173.26c0-6.68-.12-13,.13-19.23,0-.9,1.84-2.44,2.84-2.46,11.47-.17,23-.19,34.43,0,1.19,0,3.18,1.5,3.39,2.58C215.25,523.07,216,529.28,217,536Z"/><path class="cls-1" d="M256.18,536c.94-6.35,1.64-12.4,2.86-18.34.28-1.33,2.35-3.24,3.63-3.27,11.15-.26,22.31-.24,33.45,0,1.23,0,3.4,1.75,3.45,2.77.33,6.12.17,12.26.17,18.86Z"/><path class="cls-1" d="M212.34,503.8H170v-21c1.34-.14,2.74-.41,4.13-.42,10.15,0,20.3.08,30.45-.09,3.57-.06,5.45.65,5.63,4.81C210.49,492.55,211.56,497.92,212.34,503.8Z"/><path class="cls-1" d="M260.93,504c.8-6.84,1.41-12.91,2.32-18.93a3.51,3.51,0,0,1,2.6-2.13c12.44-.14,24.88-.1,37.84-.1,0,6.46.12,12.41-.12,18.35,0,1-1.64,2.68-2.54,2.69C287.91,504,274.78,504,260.93,504Z"/><path class="cls-1" d="M208.12,471.66H169.58c0-6.47-.09-12.9.13-19.32,0-.67,1.82-1.83,2.81-1.84,10-.15,20-.18,29.93,0,1.11,0,3,1.3,3.15,2.23C206.63,458.88,207.29,465.1,208.12,471.66Z"/><path class="cls-1" d="M303.76,450.75c0,6.41.17,12.22-.15,18-.06,1.12-2,3-3.12,3.07-10.64.23-21.29.11-31.93.16-2.89,0-3.74-1.06-3.21-4,.82-4.55,1-9.22,1.88-13.76.25-1.3,1.92-3.3,3-3.33C281.15,450.66,292.1,450.75,303.76,450.75Z"/></svg>