<svg id="Layer_1" data-name="Layer 1" xmlns="http://www.w3.org/2000/svg" viewBox="0 0 134.35 29.91"><defs><style>.cls-1{fill:#ee9721;}.cls-2{fill:#414042;}</style></defs><path class="cls-1" d="M26.82,14.55c-.06.32-.11.65-.16,1a11.86,11.86,0,0,1-1.79,4.72c-.38.58-.82,1.11-1.24,1.66-.06.09-.13.17-.2.26l-.09-.06.09-.17a11.16,11.16,0,0,0,2-4.95,11.27,11.27,0,0,0-.87-6.42A11.15,11.15,0,0,0,19.17,5a10.58,10.58,0,0,0-3.9-1.06A10.83,10.83,0,0,0,8.15,5.77,11,11,0,0,0,3.39,12.9a11.24,11.24,0,0,0,1.88,9l.11.19-.06.05c-.19-.21-.38-.41-.56-.62A12.56,12.56,0,0,1,2,15.34l-.12-.79V12.5A.31.31,0,0,0,2,12.4,11.34,11.34,0,0,1,2.5,9.69,12.35,12.35,0,0,1,6.83,3.58a12,12,0,0,1,5.93-2.43l.6-.11h2l.6.11a11.86,11.86,0,0,1,5.45,2.08,12.38,12.38,0,0,1,5.25,8.3c.06.34.1.69.16,1Z" transform="translate(-1.9 -1.04)"/><path class="cls-1" d="M13.83,31a5.83,5.83,0,0,1-.69-.39,1.58,1.58,0,0,1-.63-.91c.24,0,.46,0,.68,0a.27.27,0,0,1,.15.2.38.38,0,0,0,.43.36h1c.24,0,.4-.09.42-.36,0-.06.07-.17.11-.18.24,0,.47,0,.76,0a1.94,1.94,0,0,1-1.3,1.23l-.11.06Z" transform="translate(-1.9 -1.04)"/><path class="cls-1" d="M17.78,24.15H16c0-.4.08-.79.14-1.17.12-.73,0-.82-.67-.82h-2.6c-.4,0-.48.08-.46.46s.09.76.13,1.15c0,.12,0,.24.05.4H11.33c-.18,0-.39,0-.51,0s-.07-.3-.09-.46a3.65,3.65,0,0,0-1-1.93,18.08,18.08,0,0,1-2.11-2.59A7.73,7.73,0,0,1,6.47,15.8,7.6,7.6,0,0,1,9,9.26a7.51,7.51,0,0,1,4.46-2,7.59,7.59,0,0,1,5.28,1.33A7.68,7.68,0,0,1,22,13.83a7.55,7.55,0,0,1-1.12,5.32,16.27,16.27,0,0,1-2,2.42,4,4,0,0,0-1,1.67C17.86,23.52,17.83,23.82,17.78,24.15ZM15,8.54a1.07,1.07,0,0,0-.21.13,8.71,8.71,0,0,0-.93.89,3.34,3.34,0,0,0-.15,4.32,14.15,14.15,0,0,1,1,1.42,2.48,2.48,0,0,1,.31,2.3,7.15,7.15,0,0,1-.42.77,4.46,4.46,0,0,0,1-.42,3.45,3.45,0,0,0,1.5-1.59,3,3,0,0,0-.23-2.65,18.2,18.2,0,0,0-1.27-1.92,3.3,3.3,0,0,1-.79-2.27A9.9,9.9,0,0,1,15,8.54Zm-.73,10.8c-.46,0-.91,0-1.37,0-.63,0-1.26,0-1.89,0-.36,0-.44.14-.31.49s.3.71.44,1.07a.72.72,0,0,0,.72.5h4.76a.72.72,0,0,0,.72-.5c.13-.33.29-.67.43-1s.08-.51-.33-.56a3.59,3.59,0,0,0-.47,0ZM12,11.46l-.17.19a3.05,3.05,0,0,0-.58,2.13,3.37,3.37,0,0,0,.93,2,4.68,4.68,0,0,1,1.17,2,6.4,6.4,0,0,1,.08.79,2.39,2.39,0,0,0,.83-1.16,2,2,0,0,0-.34-1.67c-.36-.57-.76-1.11-1.13-1.67A3.67,3.67,0,0,1,12,11.46Z" transform="translate(-1.9 -1.04)"/><path class="cls-1" d="M13.25,29.17H11c0-.35,0-.68,0-1,0-.05.1-.13.15-.13.6,0,1.21,0,1.81,0a.25.25,0,0,1,.18.13C13.16,28.49,13.2,28.82,13.25,29.17Z" transform="translate(-1.9 -1.04)"/><path class="cls-1" d="M15.31,29.17c0-.33.09-.65.15-1a.29.29,0,0,1,.19-.17c.59,0,1.18,0,1.76,0,.07,0,.18.09.18.15,0,.32,0,.64,0,1Z" transform="translate(-1.9 -1.04)"/><path class="cls-1" d="M13,27.48H10.78V26.37l.22,0h1.6c.19,0,.29,0,.3.25S13,27.17,13,27.48Z" transform="translate(-1.9 -1.04)"/><path class="cls-1" d="M15.56,27.49c0-.36.08-.68.12-1a.19.19,0,0,1,.14-.11h2c0,.34,0,.66,0,1,0,.05-.08.14-.13.14Z" transform="translate(-1.9 -1.04)"/><path class="cls-1" d="M12.79,25.79h-2c0-.34,0-.68,0-1,0,0,.09-.1.14-.1.53,0,1.06,0,1.58,0,.06,0,.16.07.16.12C12.71,25.11,12.74,25.44,12.79,25.79Z" transform="translate(-1.9 -1.04)"/><path class="cls-1" d="M17.81,24.69c0,.33,0,.64,0,.94a.29.29,0,0,1-.17.17H16c-.15,0-.19-.05-.17-.21s.06-.48.1-.72c0-.07.1-.17.16-.18C16.62,24.68,17.2,24.69,17.81,24.69Z" transform="translate(-1.9 -1.04)"/><path class="cls-2" d="M33.8,19.91h6.11V21.3H32.09V8.4H33.8Z" transform="translate(-1.9 -1.04)"/><path class="cls-2" d="M41.6,9.18a1,1,0,0,1,.25-.68,1.09,1.09,0,0,1,1.44,0,1,1,0,0,1,.25.68,1,1,0,1,1-1.94,0ZM43.37,21.3H41.73V11.72h1.64Z" transform="translate(-1.9 -1.04)"/><path class="cls-2" d="M54.11,16.62a5.73,5.73,0,0,1-1,3.53,3.25,3.25,0,0,1-2.71,1.33,3.34,3.34,0,0,1-2.81-1.29L47.5,21.3H46V7.7h1.63v5.07a3.34,3.34,0,0,1,2.74-1.23,3.23,3.23,0,0,1,2.74,1.32,5.82,5.82,0,0,1,1,3.61Zm-1.64-.19a4.37,4.37,0,0,0-.65-2.59A2.16,2.16,0,0,0,50,12.93a2.41,2.41,0,0,0-2.33,1.51v4.14A2.48,2.48,0,0,0,50,20.09a2.16,2.16,0,0,0,1.84-.91A4.79,4.79,0,0,0,52.47,16.43Z" transform="translate(-1.9 -1.04)"/><path class="cls-2" d="M60.15,21.48A4.19,4.19,0,0,1,57,20.2a4.77,4.77,0,0,1-1.22-3.42v-.31a5.75,5.75,0,0,1,.54-2.54,4.31,4.31,0,0,1,1.53-1.76A3.84,3.84,0,0,1,60,11.54a3.59,3.59,0,0,1,2.9,1.23,5.35,5.35,0,0,1,1,3.53V17H57.4a3.43,3.43,0,0,0,.82,2.29,2.61,2.61,0,0,0,2,.87,2.91,2.91,0,0,0,1.47-.35,3.74,3.74,0,0,0,1-.94l1,.78A4,4,0,0,1,60.15,21.48ZM60,12.89a2.2,2.2,0,0,0-1.67.72,3.5,3.5,0,0,0-.83,2h4.8v-.12a3.17,3.17,0,0,0-.67-1.94A2.08,2.08,0,0,0,60,12.89Z" transform="translate(-1.9 -1.04)"/><path class="cls-2" d="M70.42,13.19a5.13,5.13,0,0,0-.81-.06,2.16,2.16,0,0,0-2.19,1.37v6.8H65.78V11.72h1.6l0,1.1a2.54,2.54,0,0,1,2.28-1.28,1.75,1.75,0,0,1,.73.12Z" transform="translate(-1.9 -1.04)"/><path class="cls-2" d="M74.59,9.4v2.32h1.79V13H74.59v6a1.32,1.32,0,0,0,.24.86,1,1,0,0,0,.81.29,4.08,4.08,0,0,0,.78-.11V21.3a4.68,4.68,0,0,1-1.26.18,2,2,0,0,1-1.65-.67A2.85,2.85,0,0,1,73,18.93V13H71.21V11.72H73V9.4Z" transform="translate(-1.9 -1.04)"/><path class="cls-2" d="M81.43,18.9l2.23-7.18h1.75L81.56,22.78c-.6,1.6-1.54,2.39-2.84,2.39l-.31,0L77.8,25V23.7l.44,0a2.23,2.23,0,0,0,1.3-.34,2.39,2.39,0,0,0,.76-1.23l.37-1-3.42-9.48H79Z" transform="translate(-1.9 -1.04)"/><path class="cls-2" d="M95.42,15.55A8,8,0,0,1,92.24,14a3,3,0,0,1-1-2.27,3.14,3.14,0,0,1,1.22-2.52,4.87,4.87,0,0,1,3.17-1A5.35,5.35,0,0,1,98,8.74a3.91,3.91,0,0,1,1.61,1.42,3.62,3.62,0,0,1,.57,2H98.47a2.37,2.37,0,0,0-.74-1.84,3,3,0,0,0-2.1-.67,3.07,3.07,0,0,0-2,.55A1.86,1.86,0,0,0,93,11.71a1.67,1.67,0,0,0,.67,1.34,6.78,6.78,0,0,0,2.28,1,10.53,10.53,0,0,1,2.51,1,3.87,3.87,0,0,1,1.35,1.27,3.3,3.3,0,0,1,.44,1.71A3,3,0,0,1,99,20.54a5.25,5.25,0,0,1-3.27.94A6,6,0,0,1,93.24,21a4.14,4.14,0,0,1-1.78-1.4,3.38,3.38,0,0,1-.63-2h1.71a2.22,2.22,0,0,0,.87,1.85,3.62,3.62,0,0,0,2.3.68,3.34,3.34,0,0,0,2.07-.55A1.79,1.79,0,0,0,98.5,18a1.72,1.72,0,0,0-.67-1.46A7.51,7.51,0,0,0,95.42,15.55Z" transform="translate(-1.9 -1.04)"/><path class="cls-2" d="M110.22,16.62a5.72,5.72,0,0,1-1,3.52,3.2,3.2,0,0,1-2.71,1.34,3.49,3.49,0,0,1-2.74-1.11V25h-1.64V11.72h1.5l.08,1.06a3.35,3.35,0,0,1,2.78-1.24,3.26,3.26,0,0,1,2.73,1.3,5.82,5.82,0,0,1,1,3.63Zm-1.63-.19a4.25,4.25,0,0,0-.69-2.56,2.24,2.24,0,0,0-1.9-.94,2.4,2.4,0,0,0-2.23,1.32v4.58A2.42,2.42,0,0,0,106,20.14a2.21,2.21,0,0,0,1.87-.93A4.67,4.67,0,0,0,108.59,16.43Z" transform="translate(-1.9 -1.04)"/><path class="cls-2" d="M118.22,21.3a3.59,3.59,0,0,1-.23-1,3.66,3.66,0,0,1-2.73,1.19,3.39,3.39,0,0,1-2.32-.8,2.6,2.6,0,0,1-.91-2,2.71,2.71,0,0,1,1.14-2.32,5.39,5.39,0,0,1,3.2-.83H118v-.75a1.86,1.86,0,0,0-.52-1.37,2,2,0,0,0-1.51-.51,2.4,2.4,0,0,0-1.47.44,1.32,1.32,0,0,0-.6,1.08h-1.64a2.25,2.25,0,0,1,.51-1.39,3.45,3.45,0,0,1,1.38-1.06,4.64,4.64,0,0,1,1.92-.39,3.8,3.8,0,0,1,2.59.83,3,3,0,0,1,1,2.28v4.41a5.49,5.49,0,0,0,.33,2.1v.14Zm-2.72-1.25a2.88,2.88,0,0,0,1.47-.4,2.41,2.41,0,0,0,1-1v-2h-1.29c-2,0-3,.59-3,1.76a1.5,1.5,0,0,0,.51,1.21A2,2,0,0,0,115.5,20.05Z" transform="translate(-1.9 -1.04)"/><path class="cls-2" d="M126.81,13.19a5.13,5.13,0,0,0-.81-.06,2.16,2.16,0,0,0-2.19,1.37v6.8h-1.64V11.72h1.6l0,1.1a2.57,2.57,0,0,1,2.29-1.28,1.75,1.75,0,0,1,.73.12Z" transform="translate(-1.9 -1.04)"/><path class="cls-2" d="M131,16.86l-1,1.08V21.3h-1.64V7.7H130v8.22l.88-1.05,3-3.15h2l-3.73,4,4.16,5.58h-1.92Z" transform="translate(-1.9 -1.04)"/></svg>